<svg width="20" height="20" viewBox="0 0 20 20" fill="none" xmlns="http://www.w3.org/2000/svg">
<path d="M6.41699 13.3958H7.70866C7.81977 13.3958 7.92394 13.375 8.02116 13.3333C8.11838 13.2917 8.20866 13.2292 8.29199 13.1458L13.875 7.70833C13.9583 7.625 14 7.52083 14 7.39583C14 7.27083 13.9583 7.16667 13.875 7.08333L12.4167 5.625C12.3333 5.54167 12.2292 5.5 12.1042 5.5C11.9792 5.5 11.875 5.54167 11.7917 5.625L6.25033 11.1042C6.16699 11.1875 6.10449 11.2778 6.06282 11.375C6.02116 11.4722 6.00033 11.5764 6.00033 11.6875V12.9792C6.00033 13.0903 6.04199 13.1875 6.12533 13.2708C6.20866 13.3542 6.30588 13.3958 6.41699 13.3958ZM1.66699 17.6458V4.66667C1.66699 4.20833 1.83033 3.81583 2.15699 3.48917C2.4831 3.16306 2.87533 3 3.33366 3H16.667C17.1253 3 17.5178 3.16306 17.8445 3.48917C18.1706 3.81583 18.3337 4.20833 18.3337 4.66667V14.6667C18.3337 15.125 18.1706 15.5175 17.8445 15.8442C17.5178 16.1703 17.1253 16.3333 16.667 16.3333H5.00032L3.08366 18.25C2.81977 18.5139 2.51755 18.5728 2.17699 18.4267C1.83699 18.2811 1.66699 18.0208 1.66699 17.6458Z" fill="#565656"/>
</svg>
