<svg width="18" height="18" viewBox="0 0 18 18" fill="none" xmlns="http://www.w3.org/2000/svg">
<rect width="18" height="18" rx="9" fill="#E7F3FF"/>
<path fill-rule="evenodd" clip-rule="evenodd" d="M11.6996 7.2C11.6996 8.69117 10.4908 9.9 8.99962 9.9C7.50845 9.9 6.29962 8.69117 6.29962 7.2C6.29962 5.70883 7.50845 4.5 8.99962 4.5C10.4908 4.5 11.6996 5.70883 11.6996 7.2Z" fill="#4998E9" fill-opacity="0.7"/>
<path d="M8.99962 11.25C6.08615 11.25 3.6038 12.9728 2.6582 15.3864C2.88856 15.6152 3.13122 15.8315 3.3851 16.0344C5.49951 17.5 6.99951 18 8.99951 18C10.9995 18 12.9995 17.3248 14.6141 16.0344C14.868 15.8315 15.1107 15.6152 15.341 15.3864C14.3955 12.9728 11.9131 11.25 8.99962 11.25Z" fill="#4998E9" fill-opacity="0.7"/>
</svg>
