<svg width="21" height="20" viewBox="0 0 21 20" fill="none" xmlns="http://www.w3.org/2000/svg">
<g clip-path="url(#clip0_59_1884)">
<path d="M16.4335 12.5036C15.5224 12.5036 14.6409 12.3555 13.8187 12.0888C13.5594 11.9999 13.2705 12.0666 13.0705 12.2666L11.9076 13.7258C9.81127 12.7258 7.84831 10.837 6.80387 8.66659L8.24831 7.43696C8.44831 7.22955 8.50757 6.94066 8.42609 6.6814C8.15201 5.85918 8.01127 4.9777 8.01127 4.06659C8.01127 3.66659 7.67794 3.33325 7.27794 3.33325H4.71498C4.31498 3.33325 3.8335 3.51103 3.8335 4.06659C3.8335 10.9481 9.55942 16.6666 16.4335 16.6666C16.9594 16.6666 17.1668 16.1999 17.1668 15.7925V13.237C17.1668 12.837 16.8335 12.5036 16.4335 12.5036Z" fill="#A5A5A5"/>
</g>
<defs>
<clipPath id="clip0_59_1884">
<rect width="20" height="20" fill="white" transform="translate(0.5)"/>
</clipPath>
</defs>
</svg>
