<svg width="14" height="14" viewBox="0 0 14 14" fill="none" xmlns="http://www.w3.org/2000/svg">
<path d="M11.165 7.54833C11.1883 7.37333 11.2 7.1925 11.2 7C11.2 6.81333 11.1883 6.62667 11.1592 6.45167L12.3433 5.53C12.4483 5.44833 12.4775 5.29083 12.4133 5.17417L11.2933 3.2375C11.2233 3.10917 11.0775 3.06833 10.9492 3.10917L9.55499 3.66917C9.26333 3.4475 8.95416 3.26083 8.60999 3.12083L8.39999 1.63917C8.37666 1.49917 8.25999 1.4 8.11999 1.4H5.87999C5.73999 1.4 5.62916 1.49917 5.60583 1.63917L5.39583 3.12083C5.05166 3.26083 4.73666 3.45333 4.45083 3.66917L3.05666 3.10917C2.92833 3.0625 2.78249 3.10917 2.71249 3.2375L1.59833 5.17417C1.52833 5.29667 1.55166 5.44833 1.66833 5.53L2.85249 6.45167C2.82333 6.62667 2.79999 6.81917 2.79999 7C2.79999 7.18083 2.81166 7.37333 2.84083 7.54833L1.65666 8.47C1.55166 8.55167 1.52249 8.70917 1.58666 8.82583L2.70666 10.7625C2.77666 10.8908 2.92249 10.9317 3.05083 10.8908L4.44499 10.3308C4.73666 10.5525 5.04583 10.7392 5.38999 10.8792L5.59999 12.3608C5.62916 12.5008 5.73999 12.6 5.87999 12.6H8.11999C8.25999 12.6 8.37666 12.5008 8.39416 12.3608L8.60416 10.8792C8.94833 10.7392 9.26333 10.5525 9.54916 10.3308L10.9433 10.8908C11.0717 10.9375 11.2175 10.8908 11.2875 10.7625L12.4075 8.82583C12.4775 8.6975 12.4483 8.55167 12.3375 8.47L11.165 7.54833ZM6.99999 9.1C5.84499 9.1 4.89999 8.155 4.89999 7C4.89999 5.845 5.84499 4.9 6.99999 4.9C8.15499 4.9 9.09999 5.845 9.09999 7C9.09999 8.155 8.15499 9.1 6.99999 9.1Z" fill="#4998E9"/>
</svg>
