<svg width="14" height="14" viewBox="0 0 14 14" fill="none" xmlns="http://www.w3.org/2000/svg">
<g clip-path="url(#clip0_1721_4475)">
<path d="M11.1649 7.54872C11.1882 7.37372 11.1999 7.19289 11.1999 7.00039C11.1999 6.81372 11.1882 6.62706 11.1591 6.45206L12.3432 5.53039C12.4482 5.44872 12.4774 5.29122 12.4132 5.17456L11.2932 3.23789C11.2232 3.10956 11.0774 3.06872 10.9491 3.10956L9.5549 3.66956C9.26323 3.44789 8.95407 3.26122 8.6099 3.12122L8.3999 1.63956C8.37657 1.49956 8.2599 1.40039 8.1199 1.40039H5.8799C5.7399 1.40039 5.62907 1.49956 5.60573 1.63956L5.39573 3.12122C5.05157 3.26122 4.73657 3.45372 4.45073 3.66956L3.05657 3.10956C2.92823 3.06289 2.7824 3.10956 2.7124 3.23789L1.59823 5.17456C1.52823 5.29706 1.55157 5.44872 1.66823 5.53039L2.8524 6.45206C2.82323 6.62706 2.7999 6.81956 2.7999 7.00039C2.7999 7.18122 2.81157 7.37372 2.84073 7.54872L1.65657 8.47039C1.55157 8.55206 1.5224 8.70956 1.58657 8.82622L2.70657 10.7629C2.77657 10.8912 2.9224 10.9321 3.05073 10.8912L4.4449 10.3312C4.73657 10.5529 5.04573 10.7396 5.3899 10.8796L5.5999 12.3612C5.62907 12.5012 5.7399 12.6004 5.8799 12.6004H8.1199C8.2599 12.6004 8.37657 12.5012 8.39407 12.3612L8.60407 10.8796C8.94824 10.7396 9.26324 10.5529 9.54907 10.3312L10.9432 10.8912C11.0716 10.9379 11.2174 10.8912 11.2874 10.7629L12.4074 8.82622C12.4774 8.69789 12.4482 8.55206 12.3374 8.47039L11.1649 7.54872ZM6.9999 9.10039C5.8449 9.10039 4.8999 8.15539 4.8999 7.00039C4.8999 5.84539 5.8449 4.90039 6.9999 4.90039C8.1549 4.90039 9.0999 5.84539 9.0999 7.00039C9.0999 8.15539 8.1549 9.10039 6.9999 9.10039Z" fill="#A5A5A5"/>
</g>
<defs>
<clipPath id="clip0_1721_4475">
<rect width="14" height="14" fill="white"/>
</clipPath>
</defs>
</svg>
