<?xml version="1.0" encoding="UTF-8"?>
<svg id="_레이어_1" data-name="레이어_1" xmlns="http://www.w3.org/2000/svg" version="1.1" viewBox="0 0 780 120">
  <!-- Generator: Adobe Illustrator 29.0.0, SVG Export Plug-In . SVG Version: 2.1.0 Build 186)  -->
  <path d="M47.6,84.4c7.3,0,11.9-3.1,11.9-9s-1.8-6.1-6.3-8.1c-4.5-2-13.1-3.6-18.9-6.7-5.8-3.1-9.2-8-9.2-15.8,0-12.5,9.2-19.9,23-19.9s14.4,1.7,20,4.8v11.9c-6.7-4.3-14.5-6.2-19.8-6.2s-11.3,2.9-11.3,8.4,2.2,6.2,6.7,8.1c4.6,1.9,13.4,3.4,19.1,6.8,5.7,3.3,8.5,8.6,8.5,15.7,0,12.9-9.5,20.6-23.6,20.6s-15.6-2-21.9-5.6v-12.3c7,5.2,16,7.3,21.6,7.3Z"/>
  <path d="M97.7,36.5h-22.3v-10.5h56.7v10.5h-22.4v57.4h-11.9v-57.4Z"/>
  <path d="M151.7,26v38.1c0,5.2.7,10,3.5,13.8,2.8,3.8,7.2,6.2,13.3,6.2s10.5-2.3,13.3-6.2c2.8-3.8,3.5-8.6,3.5-13.8V26h11.5v38.8c0,7.3-1.4,14.8-6.2,20.6-4.8,5.8-12.6,9.5-22.3,9.5s-17.5-3.6-22.3-9.5c-4.9-5.8-6.2-13.2-6.2-20.6V26h11.9Z"/>
  <path d="M210,26h22.7c10.4,0,19.3,2.9,26.1,9.1,6.8,6.1,10.4,14.9,10.4,24.9s-3.7,18.7-10.4,24.9c-6.8,6.1-15.6,9.1-26.1,9.1h-22.7V26ZM249.6,77.8c4.8-4,7.7-10.5,7.7-17.8s-2.9-13.9-7.7-17.8c-4.9-4-10.9-5.6-17.8-5.6h-9.9v46.8h9.9c6.9,0,12.9-1.6,17.8-5.5Z"/>
  <path d="M294.2,63.4l-26.3-37.3h14l9.9,14.5c2.8,4.1,5.8,8.4,8.4,12.6h.2c2.6-4.1,5.4-8.3,8.4-12.7l9.9-14.4h13.5l-26.1,37.3v30.7h-11.9v-30.6Z"/>
  <path d="M350.4,26h12.6l9.9,32.9c1.7,5.7,3.6,11.9,5.2,17.6h.2c1.6-5.8,3.4-11.8,5.3-17.7l10.3-32.8h8.7l10.2,32.9c1.9,5.9,3.6,11.7,5.3,17.6h.2c1.6-5.7,3.5-12,5.3-17.8l10-32.7h12l-21,67.9h-12.7l-9.1-29.3c-1.7-5.5-3.3-10.7-4.8-16h-.2c-1.5,5.3-3.1,10.6-4.8,16.1l-9.1,29.1h-12.6l-20.9-67.9Z"/>
  <path d="M453.3,26h11.9v67.9h-11.9V26Z"/>
  <path d="M496.1,36.5h-22.3v-10.5h56.7v10.5h-22.4v57.4h-11.9v-57.4Z"/>
  <path d="M539,26h11.9v27.4h33.1v-27.4h11.9v67.9h-11.9v-29.9h-33.1v29.9h-11.9V26Z"/>
  <path d="M632.3,26h11.4l22.1,31.6,22.1-31.6h11.4v67.9h-11.9v-32.7c0-5.6,0-11.4.2-16h-.2c-3.1,4.7-6.3,9.4-9.5,14l-12.4,17.6-12.3-17.6c-3.2-4.6-6.5-9.3-9.6-14h-.2c0,4.6.2,10.3.2,16v32.7h-11.4V26Z"/>
  <path d="M713.3,26h40.5v10.5h-28.6v17.2h24.9v10.2h-24.9v19.4h29.6v10.6h-41.5V26Z"/>
</svg>